<svg id="visual" viewBox="0 0 900 600" width="900" height="600" xmlns="http://www.w3.org/2000/svg" xmlns:xlink="http://www.w3.org/1999/xlink" version="1.1"><path d="M0 97L50 97L100 103L150 91L200 91L250 91L300 97L350 97L400 97L450 103L500 91L550 103L600 103L650 103L700 91L750 97L800 91L850 91L900 97L900 0L850 0L800 0L750 0L700 0L650 0L600 0L550 0L500 0L450 0L400 0L350 0L300 0L250 0L200 0L150 0L100 0L50 0L0 0Z" fill="#038373"></path><path d="M0 175L50 169L100 181L150 163L200 169L250 163L300 169L350 169L400 175L450 181L500 169L550 175L600 181L650 169L700 157L750 169L800 163L850 163L900 175L900 95L850 89L800 89L750 95L700 89L650 101L600 101L550 101L500 89L450 101L400 95L350 95L300 95L250 89L200 89L150 89L100 101L50 95L0 95Z" fill="#00a784"></path><path d="M0 331L50 331L100 337L150 331L200 313L250 313L300 319L350 313L400 319L450 337L500 307L550 337L600 319L650 313L700 313L750 313L800 325L850 307L900 313L900 173L850 161L800 161L750 167L700 155L650 167L600 179L550 173L500 167L450 179L400 173L350 167L300 167L250 161L200 167L150 161L100 179L50 167L0 173Z" fill="#00cc8e"></path><path d="M0 391L50 385L100 391L150 385L200 373L250 367L300 373L350 367L400 373L450 391L500 367L550 391L600 373L650 373L700 373L750 367L800 379L850 367L900 367L900 311L850 305L800 323L750 311L700 311L650 311L600 317L550 335L500 305L450 335L400 317L350 311L300 317L250 311L200 311L150 329L100 335L50 329L0 329Z" fill="#00cc8e"></path><path d="M0 541L50 535L100 541L150 535L200 541L250 541L300 535L350 535L400 541L450 541L500 541L550 535L600 541L650 535L700 535L750 541L800 541L850 535L900 535L900 365L850 365L800 377L750 365L700 371L650 371L600 371L550 389L500 365L450 389L400 371L350 365L300 371L250 365L200 371L150 383L100 389L50 383L0 389Z" fill="#00a784"></path><path d="M0 601L50 601L100 601L150 601L200 601L250 601L300 601L350 601L400 601L450 601L500 601L550 601L600 601L650 601L700 601L750 601L800 601L850 601L900 601L900 533L850 533L800 539L750 539L700 533L650 533L600 539L550 533L500 539L450 539L400 539L350 533L300 533L250 539L200 539L150 533L100 539L50 533L0 539Z" fill="#038373"></path></svg>